<svg width="65" height="42" viewBox="0 0 65 42" fill="none" xmlns="http://www.w3.org/2000/svg">
<path d="M4.91203 14.3029V40.8096H2.74123C0.932231 40.8096 0.00762939 39.9301 0.00762939 38.2109V9.26538C0.00762939 6.38682 0.932229 4.14794 2.82163 2.58872C4.34923 1.26938 6.23863 0.6297 8.40943 0.6297H11.6656V2.8286C11.6656 4.6277 10.7812 5.54724 9.05262 5.54724H8.40943C7.48483 5.54724 6.72103 5.8271 6.07783 6.34684C5.27383 7.06648 4.87183 8.026 4.87183 9.26538V9.46528H11.6254V11.6242C11.6254 13.4233 10.741 14.3029 9.01243 14.3029H4.91203Z" fill="#2B2B2B"/>
<path d="M14.5198 18.101C14.5198 15.1824 15.4444 12.9435 17.3338 11.3843C18.8614 10.1049 20.7508 9.50525 22.9216 9.50525H26.1376V11.6642C26.1376 13.4633 25.2934 14.3428 23.5648 14.3428H22.9216C22.0372 14.3428 21.2734 14.6227 20.59 15.1824C19.786 15.8621 19.384 16.8216 19.384 18.101V40.8496H17.2132C15.4042 40.8496 14.4796 39.97 14.4796 38.2509V18.101H14.5198Z" fill="#2B2B2B"/>
<path d="M31.2029 10.3848C33.0521 9.18539 35.4641 8.62567 38.3585 8.62567C41.6549 8.62567 44.3483 9.42527 46.4387 10.9845C47.6849 11.904 48.6095 13.1034 49.2527 14.5427L46.9613 15.6622C46.0367 16.1419 45.2729 16.2219 44.6699 15.8621C44.5493 15.8221 44.3081 15.5822 43.9061 15.1424C43.7855 15.0225 43.6649 14.9025 43.5041 14.7826C42.2981 13.903 40.6097 13.4633 38.3585 13.4633C34.6601 13.4633 32.6099 14.7426 32.2883 17.2614C32.0873 18.9805 32.6099 20.2998 33.8963 21.2594C34.9415 22.019 36.3485 22.4987 38.1575 22.6587C40.7705 22.8985 42.7403 23.2983 44.1071 23.8581C46.0769 24.6976 47.5643 26.057 48.4889 27.976C49.3733 29.8151 49.6145 31.8141 49.2527 33.973C48.8507 36.4518 47.6447 38.3308 45.5945 39.6502C43.7453 40.8496 41.3735 41.4493 38.4791 41.4493C35.1827 41.4493 32.4491 40.6497 30.3989 39.0904C29.1527 38.1709 28.2281 36.9715 27.5849 35.5322L29.8763 34.3728C30.8009 33.933 31.5647 33.8531 32.1677 34.1729C32.2883 34.2529 32.5295 34.4927 32.9315 34.8925C33.0923 35.0525 33.2129 35.1724 33.3335 35.2524C34.5395 36.1319 36.2279 36.5717 38.4791 36.5717C42.1775 36.5717 44.1875 35.3323 44.5091 32.8136C44.7101 31.0944 44.1875 29.7751 42.9011 28.8156C41.8559 28.056 40.4489 27.6162 38.6399 27.4563C36.0269 27.1764 34.0571 26.7766 32.6903 26.2169C30.7205 25.3773 29.2733 24.018 28.3487 22.0989C27.4643 20.2599 27.1829 18.2609 27.5447 16.1019C27.9467 13.5832 29.1929 11.6642 31.2029 10.3848Z" fill="#2B2B2B"/>
<path d="M59.1016 13.7032V35.2524C59.1016 35.8921 59.4232 36.2919 60.0664 36.5717C60.79 36.8516 61.594 36.7716 62.5588 36.3718V38.8506C62.5588 39.93 62.0764 40.6097 61.0714 40.8896C60.589 41.0495 60.1066 41.0895 59.584 41.0895C58.0966 41.0095 56.8504 40.4498 55.765 39.4103C54.7198 38.3309 54.157 37.0515 54.157 35.5722V3.2284C54.157 1.50926 55.0816 0.6297 56.8906 0.6297H59.0614V8.8256H64.8502V10.9845C64.8502 12.7836 63.9658 13.6632 62.2372 13.6632H59.1016V13.7032Z" fill="#2B2B2B"/>
</svg>
