<svg width="44" height="62" viewBox="0 0 44 62" fill="none" xmlns="http://www.w3.org/2000/svg">
<path d="M17.1544 0.795112C8.99381 2.47427 2.36081 9.03099 0.632212 17.1869C-0.855188 24.1035 0.953812 31.02 5.61701 36.1774C7.86821 38.6962 9.19481 42.0545 9.19481 45.3328V48.931C9.19481 51.3298 10.7626 53.3688 12.9334 54.0485C13.657 58.2464 17.3152 61.6047 21.8176 61.6047C26.3602 61.6047 30.0184 58.2464 30.7018 54.0485C32.8726 53.3288 34.4404 51.3298 34.4404 48.931V45.3328C34.4404 42.0145 35.7268 38.7361 38.0986 36.0575C41.5558 32.1394 43.4854 27.102 43.4854 21.8646C43.4854 8.27137 30.9832 -2.04347 17.1544 0.795112ZM21.8176 58.0865C19.486 58.0865 17.476 56.4873 16.7122 54.3683H26.923C26.1592 56.4873 24.1492 58.0865 21.8176 58.0865ZM30.8626 48.971C30.8626 49.9705 30.0586 50.7701 29.0536 50.7701H14.5816C13.5766 50.7701 12.7726 49.9705 12.7726 48.971V47.1719H30.8626V48.971ZM35.4052 33.6987C32.8726 36.5772 31.345 40.0155 30.943 43.5737H12.6922C12.2902 40.0155 10.7626 36.5372 8.31041 33.8186C4.45121 29.5008 2.92361 23.7037 4.16981 17.9465C5.61701 11.2299 11.1244 5.75263 17.9182 4.31335C29.4958 1.91455 39.9076 10.5502 39.9076 21.8646C39.8674 26.2224 38.2996 30.4203 35.4052 33.6987Z" fill="url(#paint0_linear_2_33)"/>
<defs>
<linearGradient id="paint0_linear_2_33" x1="21.8173" y1="66.9063" x2="21.8173" y2="0.000830475" gradientUnits="userSpaceOnUse">
<stop stop-color="#0E7F3B"/>
<stop offset="1" stop-color="#92EF00"/>
</linearGradient>
</defs>
</svg>
