<svg width="113" height="113" viewBox="0 0 113 113" fill="none" xmlns="http://www.w3.org/2000/svg">
<path d="M97.9542 0H15.216C9.81287 0 5.41782 4.38647 5.41782 9.77905V103.221C5.41782 108.614 9.81287 113 15.216 113H97.9542C103.357 113 107.752 108.614 107.752 103.221V9.77905C107.752 4.38647 103.357 0 97.9542 0ZM11.9499 9.77905C11.9499 7.98152 13.415 6.51936 15.216 6.51936H97.9542C99.7552 6.51936 101.22 7.98152 101.22 9.77905V22.8169H11.9499V9.77905ZM101.22 103.221C101.22 105.018 99.7552 106.481 97.9542 106.481H15.216C13.415 106.481 11.9499 105.018 11.9499 103.221V29.3363H101.22V103.221Z" fill="#FF0000"/>
<path d="M78.3552 11.4085H71.8248C70.0212 11.4085 68.5588 12.868 68.5588 14.6681C68.5588 16.4682 70.0212 17.9278 71.8248 17.9278H78.3552C80.1589 17.9278 81.6213 16.4682 81.6213 14.6681C81.6213 12.868 80.1589 11.4085 78.3552 11.4085Z" fill="#FF0000"/>
<path d="M95.7774 11.4085H89.247C87.4434 11.4085 85.9809 12.868 85.9809 14.6681C85.9809 16.4682 87.4434 17.9278 89.247 17.9278H95.7774C97.581 17.9278 99.0426 16.4682 99.0426 14.6681C99.0426 12.868 97.581 11.4085 95.7774 11.4085Z" fill="#FF0000"/>
<path d="M25.0142 67.9085C25.0142 85.2828 39.1763 99.4181 56.5846 99.4181C73.9938 99.4181 88.156 85.2828 88.156 67.9085C88.156 67.0627 88.1214 66.2247 88.0558 65.3962C88.0558 65.3919 88.0549 65.3876 88.0549 65.3842C86.7618 49.1858 73.1421 36.3988 56.5846 36.3988C40.028 36.3988 26.4083 49.1858 25.1152 65.3842C25.1144 65.3876 25.1144 65.3919 25.1144 65.3962C25.0487 66.2247 25.0142 67.0627 25.0142 67.9085ZM56.5846 92.8988C43.339 92.8988 32.4645 82.58 31.6024 69.5749C32.3073 69.8646 32.9318 70.2474 33.6445 70.6845C35.5708 71.8682 37.9696 73.3415 42.432 73.3415C46.8944 73.3415 49.2924 71.869 51.2195 70.6853C52.8167 69.7043 53.9699 68.9956 56.5838 68.9956C59.1977 68.9956 60.3517 69.7043 61.9489 70.6853C63.8761 71.8682 66.2748 73.3415 70.7373 73.3415C75.1997 73.3415 77.5985 71.869 79.5257 70.6853C80.2383 70.2474 80.8629 69.8646 81.5669 69.5749C80.7056 82.58 69.8312 92.8988 56.5846 92.8988ZM56.5846 42.9181C68.6693 42.9181 78.7819 51.5066 81.1168 62.8892C78.9098 63.4116 77.3973 64.3375 76.1024 65.1324C74.5052 66.1135 73.3512 66.8222 70.7373 66.8222C68.1234 66.8222 66.9693 66.1135 65.3722 65.1324C63.445 63.9487 61.0471 62.4754 56.5838 62.4754C52.1213 62.4754 49.7234 63.9487 47.7963 65.1324C46.1991 66.1135 45.045 66.8222 42.432 66.8222C39.8181 66.8222 38.6641 66.1135 37.0669 65.1324C35.772 64.3367 34.2604 63.4108 32.0533 62.8892C34.3882 51.5066 44.5008 42.9181 56.5846 42.9181Z" fill="#FF0000"/>
</svg>
