<svg width="131" height="123" viewBox="0 0 131 123" fill="none" xmlns="http://www.w3.org/2000/svg">
<path d="M103.867 14.8638H67.9657C68.5414 13.6206 68.8484 12.2514 68.8484 10.81C68.8484 5.09872 63.8978 0.450417 57.815 0.450417H27.1134C21.0306 0.450417 16.08 5.09872 16.08 10.81C16.08 13.6026 17.2697 16.143 19.2077 18.0167C17.2889 19.8904 16.08 22.4308 16.08 25.2234V112.19C16.08 117.901 21.0306 122.55 27.1134 122.55H103.867C109.95 122.55 114.901 117.901 114.901 112.19V25.2234C114.901 19.5121 109.95 14.8638 103.867 14.8638ZM27.1134 6.75626H57.815C60.1944 6.75626 62.1324 8.57595 62.1324 10.81C62.1324 13.0441 60.1944 14.8638 57.815 14.8638H27.1134C24.734 14.8638 22.796 13.0441 22.796 10.81C22.796 8.57595 24.734 6.75626 27.1134 6.75626ZM108.185 112.19C108.185 114.424 106.247 116.244 103.867 116.244H27.1134C24.734 116.244 22.796 114.424 22.796 112.19V25.2234C22.796 22.9893 24.734 21.1696 27.1134 21.1696H57.815H103.867C106.247 21.1696 108.185 22.9893 108.185 25.2234V112.19Z" fill="#7B7B84"/>
<path d="M65.4904 43.6905C56.395 43.6905 47.837 47.0596 41.3896 53.1853C34.9615 59.293 31.4308 67.3644 31.4308 75.9043C31.4308 84.4443 34.9615 92.5157 41.3896 98.6234C47.837 104.749 56.395 108.118 65.4904 108.118C74.5858 108.118 83.1438 104.749 89.5912 98.6234C96.0193 92.5157 99.55 84.4443 99.55 75.9043C99.55 67.3644 96.0193 59.293 89.5912 53.1853C83.1438 47.0596 74.5858 43.6905 65.4904 43.6905ZM84.8132 94.1913C79.6323 99.1098 72.782 101.812 65.4904 101.812C58.218 101.812 51.3485 99.1098 46.1676 94.1913C40.9867 89.2727 38.1468 82.7867 38.1468 75.9043C38.1468 69.022 40.9867 62.536 46.1676 57.6174C51.3485 52.6988 58.1988 49.9963 65.4904 49.9963C72.7629 49.9963 79.6323 52.6988 84.8132 57.6174C89.9941 62.536 92.834 69.022 92.834 75.9043C92.834 82.7867 89.9941 89.2907 84.8132 94.1913Z" fill="#7B7B84"/>
<path d="M65.4904 58.3381C55.167 58.3381 46.7816 66.2114 46.7816 75.9043C46.7816 85.5973 55.167 93.4706 65.4904 93.4706C75.8138 93.4706 84.1992 85.5973 84.1992 75.9043C84.1992 66.2114 75.8138 58.3381 65.4904 58.3381ZM65.4904 87.1648C58.8704 87.1648 53.4976 82.1201 53.4976 75.9043C53.4976 69.6886 58.8704 64.6439 65.4904 64.6439C72.1104 64.6439 77.4832 69.6886 77.4832 75.9043C77.4832 82.1201 72.1104 87.1648 65.4904 87.1648Z" fill="#7B7B84"/>
<path d="M80.8412 36.0334C82.9607 36.0334 84.6789 34.4201 84.6789 32.4301C84.6789 30.44 82.9607 28.8267 80.8412 28.8267C78.7217 28.8267 77.0035 30.44 77.0035 32.4301C77.0035 34.4201 78.7217 36.0334 80.8412 36.0334Z" fill="#7B7B84"/>
<path d="M96.192 36.0334C98.3115 36.0334 100.03 34.4201 100.03 32.4301C100.03 30.44 98.3115 28.8267 96.192 28.8267C94.0725 28.8267 92.3543 30.44 92.3543 32.4301C92.3543 34.4201 94.0725 36.0334 96.192 36.0334Z" fill="#7B7B84"/>
<path d="M34.7888 35.583H50.1396C52.0009 35.583 53.4976 34.1777 53.4976 32.4301C53.4976 30.6824 52.0009 29.2771 50.1396 29.2771H34.7888C32.9275 29.2771 31.4308 30.6824 31.4308 32.4301C31.4308 34.1777 32.9467 35.583 34.7888 35.583Z" fill="#7B7B84"/>
<path d="M65.4904 36.0334C67.6099 36.0334 69.3281 34.4201 69.3281 32.4301C69.3281 30.44 67.6099 28.8267 65.4904 28.8267C63.3709 28.8267 61.6527 30.44 61.6527 32.4301C61.6527 34.4201 63.3709 36.0334 65.4904 36.0334Z" fill="#7B7B84"/>
</svg>
