<svg width="126" height="126" viewBox="0 0 126 126" fill="none" xmlns="http://www.w3.org/2000/svg">
<path d="M53.2344 29.4398H61.0469C61.5649 29.4398 62.0617 29.234 62.4279 28.8677C62.7942 28.5014 63 28.0047 63 27.4867V15.7679C63 15.2499 62.7942 14.7531 62.4279 14.3868C62.0617 14.0206 61.5649 13.8148 61.0469 13.8148H53.2344C52.7164 13.8148 52.2196 14.0206 51.8533 14.3868C51.487 14.7531 51.2812 15.2499 51.2812 15.7679V27.4867C51.2812 28.0047 51.487 28.5014 51.8533 28.8677C52.2196 29.234 52.7164 29.4398 53.2344 29.4398ZM55.1875 17.721H59.0938V25.5335H55.1875V17.721Z" fill="#7B7B84"/>
<path d="M68.8594 29.4398H76.6719C77.1899 29.4398 77.6867 29.234 78.0529 28.8677C78.4192 28.5014 78.625 28.0047 78.625 27.4867V15.7679C78.625 15.2499 78.4192 14.7531 78.0529 14.3868C77.6867 14.0206 77.1899 13.8148 76.6719 13.8148H68.8594C68.3414 13.8148 67.8446 14.0206 67.4783 14.3868C67.112 14.7531 66.9062 15.2499 66.9062 15.7679V27.4867C66.9062 28.0047 67.112 28.5014 67.4783 28.8677C67.8446 29.234 68.3414 29.4398 68.8594 29.4398ZM70.8125 17.721H74.7188V25.5335H70.8125V17.721Z" fill="#7B7B84"/>
<path d="M84.4844 29.4398H92.2969C92.8149 29.4398 93.3117 29.234 93.6779 28.8677C94.0442 28.5014 94.25 28.0047 94.25 27.4867V15.7679C94.25 15.2499 94.0442 14.7531 93.6779 14.3868C93.3117 14.0206 92.8149 13.8148 92.2969 13.8148H84.4844C83.9664 13.8148 83.4696 14.0206 83.1033 14.3868C82.737 14.7531 82.5312 15.2499 82.5312 15.7679V27.4867C82.5312 28.0047 82.737 28.5014 83.1033 28.8677C83.4696 29.234 83.9664 29.4398 84.4844 29.4398ZM86.4375 17.721H90.3438V25.5335H86.4375V17.721Z" fill="#7B7B84"/>
<path d="M53.2344 48.971H61.0469C61.5649 48.971 62.0617 48.7653 62.4279 48.399C62.7942 48.0327 63 47.5359 63 47.0179V35.2992C63 34.7812 62.7942 34.2844 62.4279 33.9181C62.0617 33.5518 61.5649 33.346 61.0469 33.346H53.2344C52.7164 33.346 52.2196 33.5518 51.8533 33.9181C51.487 34.2844 51.2812 34.7812 51.2812 35.2992V47.0179C51.2812 47.5359 51.487 48.0327 51.8533 48.399C52.2196 48.7653 52.7164 48.971 53.2344 48.971ZM55.1875 37.2523H59.0938V45.0648H55.1875V37.2523Z" fill="#7B7B84"/>
<path d="M68.8594 48.971H76.6719C77.1899 48.971 77.6867 48.7653 78.0529 48.399C78.4192 48.0327 78.625 47.5359 78.625 47.0179V35.2992C78.625 34.7812 78.4192 34.2844 78.0529 33.9181C77.6867 33.5518 77.1899 33.346 76.6719 33.346H68.8594C68.3414 33.346 67.8446 33.5518 67.4783 33.9181C67.112 34.2844 66.9062 34.7812 66.9062 35.2992V47.0179C66.9062 47.5359 67.112 48.0327 67.4783 48.399C67.8446 48.7653 68.3414 48.971 68.8594 48.971ZM70.8125 37.2523H74.7188V45.0648H70.8125V37.2523Z" fill="#7B7B84"/>
<path d="M84.4844 48.971H92.2969C92.8149 48.971 93.3117 48.7653 93.6779 48.399C94.0442 48.0327 94.25 47.5359 94.25 47.0179V35.2992C94.25 34.7812 94.0442 34.2844 93.6779 33.9181C93.3117 33.5518 92.8149 33.346 92.2969 33.346H84.4844C83.9664 33.346 83.4696 33.5518 83.1033 33.9181C82.737 34.2844 82.5312 34.7812 82.5312 35.2992V47.0179C82.5312 47.5359 82.737 48.0327 83.1033 48.399C83.4696 48.7653 83.9664 48.971 84.4844 48.971ZM86.4375 37.2523H90.3438V45.0648H86.4375V37.2523Z" fill="#7B7B84"/>
<path d="M37.6094 29.4398H45.4219C45.9399 29.4398 46.4367 29.234 46.8029 28.8677C47.1692 28.5014 47.375 28.0047 47.375 27.4867V15.7679C47.375 15.2499 47.1692 14.7531 46.8029 14.3868C46.4367 14.0206 45.9399 13.8148 45.4219 13.8148H37.6094C37.0914 13.8148 36.5946 14.0206 36.2283 14.3868C35.862 14.7531 35.6562 15.2499 35.6562 15.7679V27.4867C35.6562 28.0047 35.862 28.5014 36.2283 28.8677C36.5946 29.234 37.0914 29.4398 37.6094 29.4398ZM39.5625 17.721H43.4688V25.5335H39.5625V17.721Z" fill="#7B7B84"/>
<path d="M37.6094 48.971H45.4219C45.9399 48.971 46.4367 48.7653 46.8029 48.399C47.1692 48.0327 47.375 47.5359 47.375 47.0179V35.2992C47.375 34.7812 47.1692 34.2844 46.8029 33.9181C46.4367 33.5518 45.9399 33.346 45.4219 33.346H37.6094C37.0914 33.346 36.5946 33.5518 36.2283 33.9181C35.862 34.2844 35.6562 34.7812 35.6562 35.2992V47.0179C35.6562 47.5359 35.862 48.0327 36.2283 48.399C36.5946 48.7653 37.0914 48.971 37.6094 48.971ZM39.5625 37.2523H43.4688V45.0648H39.5625V37.2523Z" fill="#7B7B84"/>
<path d="M53.2344 68.5023H61.0469C61.5649 68.5023 62.0617 68.2965 62.4279 67.9302C62.7942 67.564 63 67.0672 63 66.5492V54.8304C63 54.3124 62.7942 53.8156 62.4279 53.4493C62.0617 53.0831 61.5649 52.8773 61.0469 52.8773H53.2344C52.7164 52.8773 52.2196 53.0831 51.8533 53.4493C51.487 53.8156 51.2812 54.3124 51.2812 54.8304V66.5492C51.2812 67.0672 51.487 67.564 51.8533 67.9302C52.2196 68.2965 52.7164 68.5023 53.2344 68.5023ZM55.1875 56.7835H59.0938V64.596H55.1875V56.7835Z" fill="#7B7B84"/>
<path d="M37.6094 68.5023H45.4219C45.9399 68.5023 46.4367 68.2965 46.8029 67.9302C47.1692 67.564 47.375 67.0672 47.375 66.5492V54.8304C47.375 54.3124 47.1692 53.8156 46.8029 53.4493C46.4367 53.0831 45.9399 52.8773 45.4219 52.8773H37.6094C37.0914 52.8773 36.5946 53.0831 36.2283 53.4493C35.862 53.8156 35.6562 54.3124 35.6562 54.8304V66.5492C35.6562 67.0672 35.862 67.564 36.2283 67.9302C36.5946 68.2965 37.0914 68.5023 37.6094 68.5023ZM39.5625 56.7835H43.4688V64.596H39.5625V56.7835Z" fill="#7B7B84"/>
<path d="M68.8594 68.5023H76.6719C77.1899 68.5023 77.6867 68.2965 78.0529 67.9302C78.4192 67.564 78.625 67.0672 78.625 66.5492V54.8304C78.625 54.3124 78.4192 53.8156 78.0529 53.4493C77.6867 53.0831 77.1899 52.8773 76.6719 52.8773H68.8594C68.3414 52.8773 67.8446 53.0831 67.4783 53.4493C67.112 53.8156 66.9062 54.3124 66.9062 54.8304V66.5492C66.9062 67.0672 67.112 67.564 67.4783 67.9302C67.8446 68.2965 68.3414 68.5023 68.8594 68.5023ZM70.8125 56.7835H74.7188V64.596H70.8125V56.7835Z" fill="#7B7B84"/>
<path d="M84.4844 68.5023H92.2969C92.8149 68.5023 93.3117 68.2965 93.6779 67.9302C94.0442 67.564 94.25 67.0672 94.25 66.5492V54.8304C94.25 54.3124 94.0442 53.8156 93.6779 53.4493C93.3117 53.0831 92.8149 52.8773 92.2969 52.8773H84.4844C83.9664 52.8773 83.4696 53.0831 83.1033 53.4493C82.737 53.8156 82.5312 54.3124 82.5312 54.8304V66.5492C82.5312 67.0672 82.737 67.564 83.1033 67.9302C83.4696 68.2965 83.9664 68.5023 84.4844 68.5023ZM86.4375 56.7835H90.3438V64.596H86.4375V56.7835Z" fill="#7B7B84"/>
<path d="M53.2344 88.0335H61.0469C61.5649 88.0335 62.0617 87.8278 62.4279 87.4615C62.7942 87.0952 63 86.5984 63 86.0804V74.3617C63 73.8437 62.7942 73.3469 62.4279 72.9806C62.0617 72.6143 61.5649 72.4085 61.0469 72.4085H53.2344C52.7164 72.4085 52.2196 72.6143 51.8533 72.9806C51.487 73.3469 51.2812 73.8437 51.2812 74.3617V86.0804C51.2812 86.5984 51.487 87.0952 51.8533 87.4615C52.2196 87.8278 52.7164 88.0335 53.2344 88.0335ZM55.1875 76.3148H59.0938V84.1273H55.1875V76.3148Z" fill="#7B7B84"/>
<path d="M37.6094 88.0335H45.4219C45.9399 88.0335 46.4367 87.8278 46.8029 87.4615C47.1692 87.0952 47.375 86.5984 47.375 86.0804V74.3617C47.375 73.8437 47.1692 73.3469 46.8029 72.9806C46.4367 72.6143 45.9399 72.4085 45.4219 72.4085H37.6094C37.0914 72.4085 36.5946 72.6143 36.2283 72.9806C35.862 73.3469 35.6562 73.8437 35.6562 74.3617V86.0804C35.6562 86.5984 35.862 87.0952 36.2283 87.4615C36.5946 87.8278 37.0914 88.0335 37.6094 88.0335ZM39.5625 76.3148H43.4688V84.1273H39.5625V76.3148Z" fill="#7B7B84"/>
<path d="M68.8594 88.0335H76.6719C77.1899 88.0335 77.6867 87.8278 78.0529 87.4615C78.4192 87.0952 78.625 86.5984 78.625 86.0804V74.3617C78.625 73.8437 78.4192 73.3469 78.0529 72.9806C77.6867 72.6143 77.1899 72.4085 76.6719 72.4085H68.8594C68.3414 72.4085 67.8446 72.6143 67.4783 72.9806C67.112 73.3469 66.9062 73.8437 66.9062 74.3617V86.0804C66.9062 86.5984 67.112 87.0952 67.4783 87.4615C67.8446 87.8278 68.3414 88.0335 68.8594 88.0335ZM70.8125 76.3148H74.7188V84.1273H70.8125V76.3148Z" fill="#7B7B84"/>
<path d="M84.4844 88.0335H92.2969C92.8149 88.0335 93.3117 87.8278 93.6779 87.4615C94.0442 87.0952 94.25 86.5984 94.25 86.0804V74.3617C94.25 73.8437 94.0442 73.3469 93.6779 72.9806C93.3117 72.6143 92.8149 72.4085 92.2969 72.4085H84.4844C83.9664 72.4085 83.4696 72.6143 83.1033 72.9806C82.737 73.3469 82.5312 73.8437 82.5312 74.3617V86.0804C82.5312 86.5984 82.737 87.0952 83.1033 87.4615C83.4696 87.8278 83.9664 88.0335 84.4844 88.0335ZM86.4375 76.3148H90.3438V84.1273H86.4375V76.3148Z" fill="#7B7B84"/>
<path d="M119.64 76.3148H102.062V7.95541C102.062 7.43741 101.856 6.94063 101.49 6.57435C101.124 6.20806 100.627 6.00229 100.109 6.00229H29.7966C29.2786 6.00229 28.7818 6.20806 28.4155 6.57435C28.0492 6.94063 27.8435 7.43741 27.8435 7.95541V78.0414C26.2012 76.985 24.3046 76.3908 22.3532 76.3213C20.4017 76.2518 18.4676 76.7095 16.7544 77.6464C15.0412 78.5833 13.6121 79.9646 12.6176 81.6451C11.6232 83.3255 11.1 85.243 11.1032 87.1956C11.1053 88.2806 11.2732 89.3588 11.6013 90.3929C9.19227 91.2564 7.16567 92.943 5.87911 95.1552C4.59255 97.3673 4.12874 99.9629 4.56951 102.484C5.01028 105.005 6.32732 107.289 8.28819 108.933C10.2491 110.577 12.7278 111.476 15.2868 111.471C16.9354 111.461 18.5592 111.069 20.031 110.327V117.33C20.031 117.848 20.2367 118.345 20.603 118.711C20.9693 119.078 21.4661 119.284 21.9841 119.284C22.5021 119.284 22.9989 119.078 23.3652 118.711C23.7314 118.345 23.9372 117.848 23.9372 117.33V110.327C25.159 110.93 26.4849 111.294 27.8435 111.399V117.33C27.8435 117.848 28.0492 118.345 28.4155 118.711C28.7818 119.078 29.2786 119.284 29.7966 119.284H115.734C116.252 119.284 116.749 119.078 117.115 118.711C117.481 118.345 117.687 117.848 117.687 117.33V88.0335H119.64C120.158 88.0335 120.655 87.8278 121.021 87.4615C121.388 87.0952 121.593 86.5984 121.593 86.0804V78.2679C121.593 77.7499 121.388 77.2531 121.021 76.8868C120.655 76.5206 120.158 76.3148 119.64 76.3148ZM21.9841 99.7523C21.4661 99.7523 20.9693 99.9581 20.603 100.324C20.2367 100.691 20.031 101.187 20.031 101.705V105.612C18.7646 106.856 17.0623 107.557 15.2868 107.565C13.5014 107.572 11.7818 106.891 10.4844 105.665C9.18706 104.438 8.4114 102.759 8.31823 100.976C8.22507 99.1934 8.82154 97.4429 9.98401 96.0878C11.1465 94.7327 12.7858 93.8768 14.5622 93.6976C14.888 93.6627 15.1997 93.5464 15.4687 93.3594C15.7378 93.1725 15.9554 92.9208 16.1017 92.6277C16.248 92.3345 16.3182 92.0093 16.3058 91.6819C16.2935 91.3545 16.1989 91.0355 16.031 90.7542C15.3741 89.6831 15.0241 88.4521 15.0193 87.1956C15.0193 85.3459 15.7541 83.5718 17.0621 82.2639C18.3701 80.9559 20.1441 80.221 21.9939 80.221C23.8436 80.221 25.6177 80.9559 26.9257 82.2639C28.2337 83.5718 28.9685 85.3459 28.9685 87.1956C28.9636 88.4521 28.6136 89.6831 27.9568 90.7542C27.7888 91.0355 27.6943 91.3545 27.6819 91.6819C27.6696 92.0093 27.7397 92.3345 27.886 92.6277C28.0323 92.9208 28.25 93.1725 28.519 93.3594C28.788 93.5464 29.0998 93.6627 29.4255 93.6976C31.2028 93.8768 32.843 94.7333 34.0056 96.0895C35.1683 97.4457 35.7642 99.1975 35.6697 100.981C35.5752 102.765 34.7976 104.444 33.4983 105.67C32.1989 106.896 30.4774 107.574 28.6911 107.565C26.9122 107.56 25.206 106.859 23.9372 105.612V101.705C23.9372 101.187 23.7314 100.691 23.3652 100.324C22.9989 99.9581 22.5021 99.7523 21.9841 99.7523ZM74.7185 115.377H55.1872V95.846H74.7185V115.377ZM98.156 115.377H78.6247V93.8929C78.6247 93.3749 78.4189 92.8781 78.0527 92.5118C77.6864 92.1456 77.1896 91.9398 76.6716 91.9398H53.2341C52.7161 91.9398 52.2193 92.1456 51.853 92.5118C51.4867 92.8781 51.281 93.3749 51.281 93.8929V115.377H31.7497V111.024C33.95 110.382 35.8906 109.06 37.293 107.247C38.6955 105.434 39.4878 103.224 39.5563 100.933C39.6249 98.6417 38.9661 96.3878 37.6745 94.4944C36.383 92.6009 34.5249 91.1651 32.3669 90.3929C32.695 89.3588 32.8629 88.2806 32.865 87.1956C32.8633 85.542 32.4817 83.9109 31.7497 82.4281V9.90854H98.156V115.377ZM113.781 115.377H102.062V88.0335H113.781V115.377ZM117.687 84.1273H102.062V80.221H117.687V84.1273Z" fill="#7B7B84"/>
</svg>
