<svg width="144" height="144" viewBox="0 0 144 144" fill="none" xmlns="http://www.w3.org/2000/svg">
<g clip-path="url(#clip0_2_158)">
<path d="M45 0H0V45H45V0ZM36 36H9V9H36V36Z" fill="#0E7F3B"/>
<path d="M27 18H18V27H27V18Z" fill="#0E7F3B"/>
<path d="M99 0V45H144V0H99ZM135 36H108V9H135V36Z" fill="#0E7F3B"/>
<path d="M126 18H117V27H126V18Z" fill="#0E7F3B"/>
<path d="M0 144H45V99H0V144ZM9 108H36V135H9V108Z" fill="#0E7F3B"/>
<path d="M27 117H18V126H27V117Z" fill="#0E7F3B"/>
<path d="M90 0H72V9H90V0Z" fill="#0E7F3B"/>
<path d="M72 36H81V27H90V18H63V9H54V18V22.5V27H72V36Z" fill="#0E7F3B"/>
<path d="M63 36H54V45H63V36Z" fill="#0E7F3B"/>
<path d="M90 45H81V54H54V63H90V45Z" fill="#0E7F3B"/>
<path d="M9 81H18V72H9V54H0V90H9V81Z" fill="#0E7F3B"/>
<path d="M27 54H18V63H27V54Z" fill="#0E7F3B"/>
<path d="M54 90H72V81H63V72H45V54H36V72H27V90H36V81H40.5H45H54V90Z" fill="#0E7F3B"/>
<path d="M90 72H81V90H90V72Z" fill="#0E7F3B"/>
<path d="M81 99H54V108H72V135H54V144H81V135H99V126H81V99Z" fill="#0E7F3B"/>
<path d="M63 117H54V126H63V117Z" fill="#0E7F3B"/>
<path d="M99 99H90V117H99V99Z" fill="#0E7F3B"/>
<path d="M135 117H108V144H117V126H135V117Z" fill="#0E7F3B"/>
<path d="M144 135H126V144H144V135Z" fill="#0E7F3B"/>
<path d="M144 99H135V108H144V99Z" fill="#0E7F3B"/>
<path d="M108 108H117V81H99V90H108V108Z" fill="#0E7F3B"/>
<path d="M126 63H117V54H108V63H99V72H135V63H144V54H126V63Z" fill="#0E7F3B"/>
<path d="M144 81H126V90H144V81Z" fill="#0E7F3B"/>
</g>
<defs>
<clipPath id="clip0_2_158">
<rect width="144" height="144" fill="white"/>
</clipPath>
</defs>
</svg>
